<!DOCTYPE svg PUBLIC "-//W3C//DTD SVG 1.1//EN" "http://www.w3.org/Graphics/SVG/1.1/DTD/svg11.dtd">
<!-- Uploaded to: SVG Repo, www.svgrepo.com, Transformed by: SVG Repo Mixer Tools -->
<svg height="800px" width="800px" version="1.1" id="Layer_1" xmlns="http://www.w3.org/2000/svg" xmlns:xlink="http://www.w3.org/1999/xlink" viewBox="0 0 512 512" xml:space="preserve" fill="#000000">
<g id="SVGRepo_bgCarrier" stroke-width="0"/>
<g id="SVGRepo_tracerCarrier" stroke-linecap="round" stroke-linejoin="round"/>
<g id="SVGRepo_iconCarrier"> <path style="fill:#ffba19;" d="M508,476c0,17.6-14.4,32-32,32H36c-17.6,0-32-14.4-32-32V36C4,18.4,18.4,4,36,4h440 c17.6,0,32,14.4,32,32V476z"/> <path d="M476,512H36c-20,0-36-16-36-36V36C0,16,16,0,36,0h440c20,0,36,16,36,36v440C512,496,496,512,476,512z M36,8 C20.4,8,8,20.4,8,36v440c0,15.6,12.4,28,28,28h440c15.6,0,28-12.4,28-28V36c0-15.6-12.4-28-28-28H36z"/> <path style="fill:#ffd675;" d="M104,44.4v48c0,4.4,0.4,11.6-4,11.6H52c-4.4,0-12-7.2-12-11.6v-48c0-4.4,4.4-6,9.2-6l33.2,2h18 C104.4,40,104,40,104,44.4z"/> <path d="M100,108H52c-6.8,0-16-9.2-16-15.6v-48c0-6,4.8-10,12-10c2.4,0,4,1.6,4,4s-1.6,4-4,4c-4,0-4,1.6-4,2v48c0,2,5.6,7.6,8,7.6 h47.6c0.4-1.2,0.4-4.8,0.4-6v-1.6V44H80c-2.4,0-4-1.6-4-4s1.6-4,4-4h20c2.8,0,4.8,0,6.4,1.6c1.6,1.6,1.6,3.6,1.6,5.6v1.2V94 c0,4,0,9.2-2.8,12C104,107.2,102,108,100,108z"/> <path style="fill:#ffd675;" d="M196,44.4v48c0,4.4,0.4,11.6-4,11.6h-48c-4.4,0-12-7.2-12-11.6v-48c0-4.4,4.4-6,9.2-6l33.2,2h18 C196.4,40,196,40,196,44.4z"/> <path d="M192,108h-48c-6.8,0-16-9.2-16-15.6v-48c0-6,4.8-10,12-10c2.4,0,4,1.6,4,4s-1.6,4-4,4c-4,0-4,1.6-4,2v48c0,2,5.6,7.6,8,7.6 h47.6c0.4-1.2,0.4-4.8,0.4-6v-1.6V44h-20c-2.4,0-4-1.6-4-4s1.6-4,4-4h20c2.8,0,4.8,0,6.4,1.6c1.6,1.6,1.6,3.6,1.6,5.6v1.2V94 c0,4,0,9.2-2.8,12C196,107.2,194,108,192,108z"/> <path style="fill:#ffd675;" d="M288,44.4v48c0,4.4,0.4,11.6-4,11.6h-48c-4.4,0-12-7.2-12-11.6v-48c0-4.4,4.4-6,9.2-6l33.2,2h18 C288.4,40,288,40,288,44.4z"/> <path d="M284,108h-48c-6.8,0-16-9.2-16-15.6v-48c0-6,4.8-10,12-10c2.4,0,4,1.6,4,4s-1.6,4-4,4c-4,0-4,1.6-4,2v48c0,2,5.6,7.6,8,7.6 h47.6c0.4-1.2,0.4-4.8,0.4-6v-1.6V44h-20c-2.4,0-4-1.6-4-4s1.6-4,4-4h20c2.8,0,4.8,0,6.4,1.6c1.6,1.6,1.6,3.6,1.6,5.2V44v49.6 c0,4,0,9.2-2.8,12C288,107.2,286,108,284,108z"/> <path style="fill:#ffd675;" d="M380,44.4v48c0,4.4,0.4,11.6-4,11.6h-48c-4.4,0-12-7.2-12-11.6v-48c0-4.4,4.4-6,9.2-6l33.2,2h18 C380.4,40,380,40,380,44.4z"/> <path d="M376,108h-48c-6.8,0-16-9.2-16-15.6v-48c0-6,4.8-10,12-10c2.4,0,4,1.6,4,4s-1.6,4-4,4c-4,0-4,1.6-4,2v48c0,2,5.6,7.6,8,7.6 h47.6c0.4-1.2,0.4-4.8,0.4-6v-1.6V44h-20c-2.4,0-4-1.6-4-4s1.6-4,4-4h20c2.8,0,4.8,0,6.4,1.6c1.6,1.6,1.6,3.6,1.6,5.2V44v49.6 c0,4,0,9.2-2.8,12C380,107.2,378,108,376,108z"/> <path style="fill:#ffd675;" d="M472,44.4v48c0,4.4,0.4,11.6-4,11.6h-48c-4.4,0-12-7.2-12-11.6v-48c0-4.4,4.4-6,9.2-6l33.2,2h18 C472.4,40,472,40,472,44.4z"/> <path d="M468,108h-48c-6.8,0-16-9.2-16-15.6v-48c0-6,4.8-10,12-10c2.4,0,4,1.6,4,4s-1.6,4-4,4c-4,0-4,1.6-4,2v48c0,2,5.6,7.6,8,7.6 h47.6c0.4-1.2,0.4-4.8,0.4-6v-1.6V44h-20c-2.4,0-4-1.6-4-4s1.6-4,4-4h20c2.8,0,4.8,0,6.4,1.6s1.6,3.6,1.6,5.2V44v49.6 c0,4,0,9.2-2.8,12C472,107.2,470,108,468,108z"/> <path style="fill:#ffd675;" d="M104,136.4v48c0,4.4,0.4,11.6-4,11.6H52c-4.4,0-12-7.2-12-11.6v-48c0-4.4,4.4-6,9.2-6l33.2,2h18 C104.4,132,104,132,104,136.4z"/> <path d="M100,200H52c-6.8,0-16-9.2-16-15.6v-48c0-6,4.8-10,12-10c2.4,0,4,1.6,4,4s-1.6,4-4,4c-4,0-4,1.6-4,2v48c0,2,5.6,7.6,8,7.6 h47.6c0.4-1.2,0.4-4.8,0.4-6v-1.6V136H80c-2.4,0-4-1.6-4-4s1.6-4,4-4h20c2.8,0,4.8,0,6.4,1.6c1.6,1.6,1.6,3.6,1.6,5.6v1.2V186 c0,4,0,9.2-2.8,12C104,199.2,102,200,100,200z"/> <path style="fill:#ffd675;" d="M196,136.4v48c0,4.4,0.4,11.6-4,11.6h-48c-4.4,0-12-7.2-12-11.6v-48c0-4.4,4.4-6,9.2-6l33.2,2h18 C196.4,132,196,132,196,136.4z"/> <path d="M192,200h-48c-6.8,0-16-9.2-16-15.6v-48c0-6,4.8-10,12-10c2.4,0,4,1.6,4,4s-1.6,4-4,4c-4,0-4,1.6-4,2v48c0,2,5.6,7.6,8,7.6 h47.6c0.4-1.2,0.4-4.8,0.4-6v-1.6V136h-20c-2.4,0-4-1.6-4-4s1.6-4,4-4h20c2.8,0,4.8,0,6.4,1.6c1.6,1.6,1.6,3.6,1.6,5.6v1.2V186 c0,4,0,9.2-2.8,12C196,199.2,194,200,192,200z"/> <path style="fill:#ffd675;" d="M288,136.4v48c0,4.4,0.4,11.6-4,11.6h-48c-4.4,0-12-7.2-12-11.6v-48c0-4.4,4.4-6,9.2-6l33.2,2h18 C288.4,132,288,132,288,136.4z"/> <path d="M284,200h-48c-6.8,0-16-9.2-16-15.6v-48c0-6,4.8-10,12-10c2.4,0,4,1.6,4,4s-1.6,4-4,4c-4,0-4,1.6-4,2v48c0,2,5.6,7.6,8,7.6 h47.6c0.4-1.2,0.4-4.8,0.4-6v-1.6V136h-20c-2.4,0-4-1.6-4-4s1.6-4,4-4h20c2.8,0,4.8,0,6.4,1.6c1.6,1.6,1.6,3.6,1.6,5.2v1.2v49.6 c0,4,0,9.2-2.8,12C288,199.2,286,200,284,200z"/> <path style="fill:#ffd675;" d="M380,136.4v48c0,4.4,0.4,11.6-4,11.6h-48c-4.4,0-12-7.2-12-11.6v-48c0-4.4,4.4-6,9.2-6l33.2,2h18 C380.4,132,380,132,380,136.4z"/> <path d="M376,200h-48c-6.8,0-16-9.2-16-15.6v-48c0-6,4.8-10,12-10c2.4,0,4,1.6,4,4s-1.6,4-4,4c-4,0-4,1.6-4,2v48c0,2,5.6,7.6,8,7.6 h47.6c0.4-1.2,0.4-4.8,0.4-6v-1.6V136h-20c-2.4,0-4-1.6-4-4s1.6-4,4-4h20c2.8,0,4.8,0,6.4,1.6c1.6,1.6,1.6,3.6,1.6,5.2v1.2v49.6 c0,4,0,9.2-2.8,12C380,199.2,378,200,376,200z"/> <path style="fill:#ffd675;" d="M472,136.4v48c0,4.4,0.4,11.6-4,11.6h-48c-4.4,0-12-7.2-12-11.6v-48c0-4.4,4.4-6,9.2-6l33.2,2h18 C472.4,132,472,132,472,136.4z"/> <path d="M468,200h-48c-6.8,0-16-9.2-16-15.6v-48c0-6,4.8-10,12-10c2.4,0,4,1.6,4,4s-1.6,4-4,4c-4,0-4,1.6-4,2v48c0,2,5.6,7.6,8,7.6 h47.6c0.4-1.2,0.4-4.8,0.4-6v-1.6V136h-20c-2.4,0-4-1.6-4-4s1.6-4,4-4h20c2.8,0,4.8,0,6.4,1.6s1.6,3.6,1.6,5.2v1.2v49.6 c0,4,0,9.2-2.8,12C472,199.2,470,200,468,200z"/> <path style="fill:#ffd675;" d="M104,228.4v48c0,4.4,0.4,11.6-4,11.6H52c-4.4,0-12-7.2-12-11.6v-48c0-4.4,4.4-6,9.2-6l33.2,2h18 C104.4,224,104,224,104,228.4z"/> <path d="M100,292H52c-6.8,0-16-8.8-16-15.6v-48c0-6,4.8-10,12-10c2.4,0,4,1.6,4,4s-1.6,4-4,4c-4,0-4,1.6-4,2v48c0,2,5.6,7.6,8,7.6 h47.6c0.4-1.2,0.4-4.8,0.4-6v-1.6V228H80c-2.4,0-4-1.6-4-4s1.6-4,4-4h20l0,0c2.8,0,4.8,0,6.4,1.6c1.6,1.6,1.6,3.6,1.6,5.6v1.2V278 c0,4,0,9.2-2.8,12C104,291.2,102,292,100,292z"/> <path style="fill:#ffd675;" d="M196,228.4v48c0,4.4,0.4,11.6-4,11.6h-48c-4.4,0-12-7.2-12-11.6v-48c0-4.4,4.4-6,9.2-6l33.2,2h18 C196.4,224,196,224,196,228.4z"/> <path d="M192,292h-48c-6.8,0-16-8.8-16-15.6v-48c0-6,4.8-10,12-10c2.4,0,4,1.6,4,4s-1.6,4-4,4c-4,0-4,1.6-4,2v48c0,2,5.6,7.6,8,7.6 h47.6c0.4-1.2,0.4-4.8,0.4-6v-1.6V228h-20c-2.4,0-4-1.6-4-4s1.6-4,4-4h20l0,0c2.8,0,4.8,0,6.4,1.6c1.6,1.6,1.6,3.6,1.6,5.6v1.2V278 c0,4,0,9.2-2.8,12C196,291.2,194,292,192,292z"/> <path style="fill:#ffd675;" d="M288,228.4v48c0,4.4,0.4,11.6-4,11.6h-48c-4.4,0-12-7.2-12-11.6v-48c0-4.4,4.4-6,9.2-6l33.2,2h18 C288.4,224,288,224,288,228.4z"/> <path d="M284,292h-48c-6.8,0-16-8.8-16-15.6v-48c0-6,4.8-10,12-10c2.4,0,4,1.6,4,4s-1.6,4-4,4c-4,0-4,1.6-4,2v48c0,2,5.6,7.6,8,7.6 h47.6c0.4-1.2,0.4-4.8,0.4-6v-1.6V228h-20c-2.4,0-4-1.6-4-4s1.6-4,4-4h20c2.8,0,4.8,0,6.4,1.6c1.6,1.6,1.6,3.6,1.6,5.6v1.2V278 c0,4,0,9.2-2.8,12C288,291.2,286,292,284,292z"/> <path style="fill:#ffd675;" d="M380,228.4v48c0,4.4,0.4,11.6-4,11.6h-48c-4.4,0-12-7.2-12-11.6v-48c0-4.4,4.4-6,9.2-6l33.2,2h18 C380.4,224,380,224,380,228.4z"/> <path d="M376,292h-48c-6.8,0-16-8.8-16-15.6v-48c0-6,4.8-10,12-10c2.4,0,4,1.6,4,4s-1.6,4-4,4c-4,0-4,1.6-4,2v48c0,2,5.6,7.6,8,7.6 h47.6c0.4-1.2,0.4-4.8,0.4-6v-1.6V228h-20c-2.4,0-4-1.6-4-4s1.6-4,4-4h20c2.8,0,4.8,0,6.4,1.6c1.6,1.6,1.6,3.6,1.6,5.6v1.2V278 c0,4,0,9.2-2.8,12C380,291.2,378,292,376,292z"/> <path style="fill:#ffd675;" d="M472,228.4v48c0,4.4,0.4,11.6-4,11.6h-48c-4.4,0-12-7.2-12-11.6v-48c0-4.4,4.4-6,9.2-6l33.2,2h18 C472.4,224,472,224,472,228.4z"/> <path d="M468,292h-48c-6.8,0-16-8.8-16-15.6v-48c0-6,4.8-10,12-10c2.4,0,4,1.6,4,4s-1.6,4-4,4c-4,0-4,1.6-4,2v48c0,2,5.6,7.6,8,7.6 h47.6c0.4-1.2,0.4-4.8,0.4-6v-1.6V228h-20c-2.4,0-4-1.6-4-4s1.6-4,4-4h20c2.8,0,4.8,0,6.4,1.6s1.6,3.6,1.6,5.6v1.2V278 c0,4,0,9.2-2.8,12C472,291.2,470,292,468,292z"/> <path style="fill:#ffd675;" d="M104,320.4v48c0,4.4,0.4,11.6-4,11.6H52c-4.4,0-12-7.2-12-11.6v-48c0-4.4,4.4-6.4,9.2-6.4l33.2,2h18 C104.4,316,104,316,104,320.4z"/> <path d="M100,384H52c-6.8,0-16-8.8-16-15.6v-48c0-6,4.8-10,12-10c2.4,0,4,1.6,4,4s-1.6,4-4,4c-4,0-4,1.6-4,2v48c0,2,5.6,7.6,8,7.6 h47.6c0.4-1.2,0.4-4.8,0.4-6v-1.6V320H80c-2.4,0-4-1.6-4-4s1.6-4,4-4h20c2.8,0,4.8,0,6.4,1.6c1.6,1.6,1.6,3.6,1.6,5.6v1.2V370 c0,4,0,9.2-2.8,12C104,383.2,102,384,100,384z"/> <path style="fill:#ffd675;" d="M196,320.4v48c0,4.4,0.4,11.6-4,11.6h-48c-4.4,0-12-7.2-12-11.6v-48c0-4.4,4.4-6.4,9.2-6.4l33.2,2h18 C196.4,316,196,316,196,320.4z"/> <path d="M192,384h-48c-6.8,0-16-8.8-16-15.6v-48c0-6,4.8-10,12-10c2.4,0,4,1.6,4,4s-1.6,4-4,4c-4,0-4,1.6-4,2v48c0,2,5.6,7.6,8,7.6 h47.6c0.4-1.2,0.4-4.8,0.4-6v-1.6V320h-20c-2.4,0-4-1.6-4-4s1.6-4,4-4h20c2.8,0,4.8,0,6.4,1.6c1.6,1.6,1.6,3.6,1.6,5.6v1.2V370 c0,4,0,9.2-2.8,12C196,383.2,194,384,192,384z"/> <path style="fill:#ffd675;" d="M288,320.4v48c0,4.4,0.4,11.6-4,11.6h-48c-4.4,0-12-7.2-12-11.6v-48c0-4.4,4.4-6.4,9.2-6.4l33.2,2h18 C288.4,316,288,316,288,320.4z"/> <path d="M284,384h-48c-6.8,0-16-8.8-16-15.6v-48c0-6,4.8-10,12-10c2.4,0,4,1.6,4,4s-1.6,4-4,4c-4,0-4,1.6-4,2v48c0,2,5.6,7.6,8,7.6 h47.6c0.4-1.2,0.4-4.8,0.4-6v-1.6V320h-20c-2.4,0-4-1.6-4-4s1.6-4,4-4h20c2.8,0,4.8,0,6.4,1.6c1.6,1.6,1.6,3.6,1.6,5.6v1.2V370 c0,4,0,9.2-2.8,12C288,383.2,286,384,284,384z"/> <path style="fill:#ffd675;" d="M380,320.4v48c0,4.4,0.4,11.6-4,11.6h-48c-4.4,0-12-7.2-12-11.6v-48c0-4.4,4.4-6.4,9.2-6.4l33.2,2h18 C380.4,316,380,316,380,320.4z"/> <path d="M376,384h-48c-6.8,0-16-8.8-16-15.6v-48c0-6,4.8-10,12-10c2.4,0,4,1.6,4,4s-1.6,4-4,4c-4,0-4,1.6-4,2v48c0,2,5.6,7.6,8,7.6 h47.6c0.4-1.2,0.4-4.8,0.4-6v-1.6V320h-20c-2.4,0-4-1.6-4-4s1.6-4,4-4h20c2.8,0,4.8,0,6.4,1.6c1.6,1.6,1.6,3.6,1.6,5.6v1.2V370 c0,4,0,9.2-2.8,12C380,383.2,378,384,376,384z"/> <path style="fill:#ffd675;" d="M472,320.4v48c0,4.4,0.4,11.6-4,11.6h-48c-4.4,0-12-7.2-12-11.6v-48c0-4.4,4.4-6.4,9.2-6.4l33.2,2h18 C472.4,316,472,316,472,320.4z"/> <path d="M468,384h-48c-6.8,0-16-8.8-16-15.6v-48c0-6,4.8-10,12-10c2.4,0,4,1.6,4,4s-1.6,4-4,4c-4,0-4,1.6-4,2v48c0,2,5.6,7.6,8,7.6 h47.6c0.4-1.2,0.4-4.8,0.4-6v-1.6V320h-20c-2.4,0-4-1.6-4-4s1.6-4,4-4h20c2.8,0,4.8,0,6.4,1.6s1.6,3.6,1.6,5.6v1.2V370 c0,4,0,9.2-2.8,12C472,383.2,470,384,468,384z"/> <path style="fill:#ffd675;" d="M104,412.4v48c0,4.4,0.4,11.6-4,11.6H52c-4.4,0-12-7.2-12-11.6v-48c0-4.4,4.4-6.4,9.2-6.4l33.2,2h18 C104.4,408,104,408,104,412.4z"/> <path d="M100,476H52c-6.8,0-16-8.8-16-15.6v-48c0-6.4,4.8-10.4,12-10.4c2.4,0,4,1.6,4,4s-1.6,4-4,4c-4,0-4,1.6-4,2.4v48 c0,2,5.6,7.6,8,7.6h47.6c0.4-1.2,0.4-4.4,0.4-6v-1.6V412H80c-2.4,0-4-1.6-4-4s1.6-4,4-4h20c2.8,0,4.8,0,6.4,1.6 c1.6,1.6,1.6,3.6,1.6,5.6v1.2V462c0,4,0,9.2-2.8,12C104,475.2,102,476,100,476z"/> <path style="fill:#ffd675;" d="M196,412.4v48c0,4.4,0.4,11.6-4,11.6h-48c-4.4,0-12-7.2-12-11.6v-48c0-4.4,4.4-6.4,9.2-6.4l33.2,2h18 C196.4,408,196,408,196,412.4z"/> <path d="M192,476h-48c-6.8,0-16-8.8-16-15.6v-48c0-6.4,4.8-10.4,12-10.4c2.4,0,4,1.6,4,4s-1.6,4-4,4c-4,0-4,1.6-4,2.4v48 c0,2,5.6,7.6,8,7.6h47.6c0.4-1.2,0.4-4.4,0.4-6v-1.6V412h-20c-2.4,0-4-1.6-4-4s1.6-4,4-4h20c2.8,0,4.8,0,6.4,1.6 c1.6,1.6,1.6,3.6,1.6,5.6v1.2V462c0,4,0,9.2-2.8,12C196,475.2,194,476,192,476z"/> <path style="fill:#ffd675;" d="M288,412.4v48c0,4.4,0.4,11.6-4,11.6h-48c-4.4,0-12-7.2-12-11.6v-48c0-4.4,4.4-6.4,9.2-6.4l33.2,2h18 C288.4,408,288,408,288,412.4z"/> <path d="M284,476h-48c-6.8,0-16-8.8-16-15.6v-48c0-6.4,4.8-10.4,12-10.4c2.4,0,4,1.6,4,4s-1.6,4-4,4c-4,0-4,1.6-4,2.4v48 c0,2,5.6,7.6,8,7.6h47.6c0.4-1.2,0.4-4.4,0.4-6v-1.6V412h-20c-2.4,0-4-1.6-4-4s1.6-4,4-4h20c2.8,0,4.8,0,6.4,1.6 c1.6,1.6,1.6,3.6,1.6,5.6v1.2V462c0,4,0,9.2-2.8,12C288,475.2,286,476,284,476z"/> <path style="fill:#ffd675;" d="M380,412.4v48c0,4.4,0.4,11.6-4,11.6h-48c-4.4,0-12-7.2-12-11.6v-48c0-4.4,4.4-6.4,9.2-6.4l33.2,2h18 C380.4,408,380,408,380,412.4z"/> <path d="M376,476h-48c-6.8,0-16-8.8-16-15.6v-48c0-6.4,4.8-10.4,12-10.4c2.4,0,4,1.6,4,4s-1.6,4-4,4c-4,0-4,1.6-4,2.4v48 c0,2,5.6,7.6,8,7.6h47.6c0.4-1.2,0.4-4.4,0.4-6v-1.6V412h-20c-2.4,0-4-1.6-4-4s1.6-4,4-4h20c2.8,0,4.8,0,6.4,1.6 c1.6,1.6,1.6,3.6,1.6,5.6v1.2V462c0,4,0,9.2-2.8,12C380,475.2,378,476,376,476z"/> <path style="fill:#ffd675;" d="M472,412.4v48c0,4.4,0.4,11.6-4,11.6h-48c-4.4,0-12-7.2-12-11.6v-48c0-4.4,4.4-6.4,9.2-6.4l33.2,1.6 h18C472.4,408,472,408,472,412.4z"/> <path d="M468,476h-48c-6.8,0-16-8.8-16-15.6v-48c0-6.4,4.8-10.4,12-10.4c2.4,0,4,1.6,4,4s-1.6,4-4,4c-4,0-4,1.6-4,2.4v48 c0,2,5.6,7.6,8,7.6h47.6c0.4-1.2,0.4-4.4,0.4-6v-1.6V412h-20c-2.4,0-4-1.6-4-4s1.6-4,4-4h20c2.8,0,4.8,0,6.4,1.6s1.6,3.6,1.6,5.6 v1.2V462c0,4,0,9.2-2.8,12C472,475.2,470,476,468,476z"/> </g>
</svg>